<svg width="24" height="24" viewBox="0 0 24 24" fill="none" xmlns="http://www.w3.org/2000/svg">
<rect width="24" height="24" rx="4.5" fill="#606060"/>
<path d="M18.1519 16.8154L22.2 20.8626L20.8626 22.2L16.8154 18.1519C15.3095 19.3591 13.4365 20.0156 11.5064 20.0129C6.81089 20.0129 3 16.202 3 11.5064C3 6.81089 6.81089 3 11.5064 3C16.202 3 20.0129 6.81089 20.0129 11.5064C20.0156 13.4365 19.3591 15.3095 18.1519 16.8154ZM16.2559 16.1141C17.4554 14.8806 18.1253 13.227 18.1226 11.5064C18.1226 7.85057 15.1614 4.89032 11.5064 4.89032C7.85057 4.89032 4.89032 7.85057 4.89032 11.5064C4.89032 15.1614 7.85057 18.1226 11.5064 18.1226C13.227 18.1253 14.8806 17.4554 16.1141 16.2559L16.2559 16.1141ZM10.5613 10.5613V7.72581H12.4516V10.5613H15.2871V12.4516H12.4516V15.2871H10.5613V12.4516H7.72581V10.5613H10.5613Z" fill="white"/>
</svg>
